<?xml version="1.0" ?><svg height="55px" version="1.1" viewBox="0 0 36 55" width="36px" xmlns="http://www.w3.org/2000/svg" xmlns:xlink="http://www.w3.org/1999/xlink"><title/><desc/><defs/><g fill="none" fill-rule="evenodd" id="Page-1" stroke="none" stroke-width="1"><g fill="#000000" fill-rule="nonzero" id="016---Xmas-Tree" transform="translate(-1.000000, 0.000000)"><path d="M36.79,42.39 L28.03,31 L34,31 C34.3815672,30.9978774 34.7295216,30.7813724 34.9,30.44 C35.0713454,30.0985175 35.0283972,29.6885571 34.79,29.39 L26.03,18 L29,18 C29.4047753,18.0014942 29.7694462,17.7557377 29.92,17.38 C30.0759489,17.0075356 29.9931681,16.5778639 29.71,16.29 L23.31,9.89 L20.09,6.67 L21.34,7.32 L20.98,5.27 C20.9286369,4.94214127 21.040641,4.60986251 21.28,4.38 L22.76,2.95 L20.69,2.65 C20.3660527,2.60517899 20.0852551,2.40300473 19.94,2.11 L19,0.24 L18.06,2.11 C17.9147449,2.40300473 17.6339473,2.60517899 17.31,2.65 L15.24,2.95 L16.72,4.38 C16.959359,4.60986251 17.0713631,4.94214127 17.02,5.27 L16.66,7.32 L17.91,6.67 L14.69,9.89 L8.29,16.29 C8.00683193,16.5778639 7.92405113,17.0075356 8.08,17.38 C8.23055377,17.7557377 8.59522474,18.0014942 9,18 L11.97,18 L3.21,29.39 C2.97160279,29.6885571 2.92865457,30.0985175 3.1,30.44 C3.27047844,30.7813724 3.61843279,30.9978774 4,31 L9.97,31 L1.21,42.39 C0.971602795,42.6885571 0.928654566,43.0985175 1.1,43.44 C1.27047844,43.7813724 1.61843279,43.9978774 2,44 L16,44 L16,47 L22,47 L22,44 L36,44 C36.3815672,43.9978774 36.7295216,43.7813724 36.9,43.44 C37.0713454,43.0985175 37.0283972,42.6885571 36.79,42.39 Z M16.56,14.46 C16.8126813,13.3134057 17.8299224,12.497645 19.0040265,12.500051 C20.1781307,12.5024569 21.19202,13.3223797 21.44,14.47 C22.3899335,14.401015 23.2965591,14.0453388 24.04,13.45 L24.74,14.15 C23.8168545,14.9373851 22.6613669,15.4009849 21.45,15.47 C21.2272582,16.6474917 20.1983742,17.4999924 19,17.4999924 C17.8016258,17.4999924 16.7727418,16.6474917 16.55,15.47 C15.3955156,15.2604482 14.3142626,14.7577 13.41,14.01 L14.12,13.29 C14.8294403,13.8673498 15.6656323,14.2683107 16.56,14.46 L16.56,14.46 Z M12.51,25.71 L12.52,25.7 C12.6651335,24.4888111 13.6641391,23.559771 14.8826617,23.5028076 C16.1011844,23.4458441 17.1825051,24.2776331 17.44,25.47 C18.2095865,25.4012222 18.9542371,25.1621142 19.62,24.77 C19.5389027,24.5214445 19.4983834,24.2614459 19.5,24 C19.5001089,22.6639583 20.5505627,21.5640612 21.8851875,21.5025454 C23.2198123,21.4410297 24.3669905,22.4396331 24.49,23.77 C25.61144,24.4771582 26.9994961,24.6178146 28.24,24.15 L28.89,25 C28.1700341,25.2529629 27.4130947,25.3847514 26.65,25.39 C25.8504046,25.4036174 25.0599885,25.2180414 24.35,24.85 C24.0492791,25.6813969 23.3318916,26.2922033 22.4631794,26.4564987 C21.5944672,26.6207942 20.7035677,26.3141555 20.12,25.65 C19.3036687,26.1222019 18.3906536,26.4026036 17.45,26.47 C17.2380446,27.58682 16.2980443,28.4192262 15.1637862,28.4945297 C14.0295281,28.5698331 12.9877358,27.8689982 12.63,26.79 C11.8509702,27.1922043 10.986729,27.4014055 10.11,27.4 C9.26473664,27.3906679 8.4293081,27.2174693 7.65,26.89 L8.29,26.07 C9.67717681,26.6053635 11.2335493,26.4725923 12.51,25.71 Z M10.58,38.72 C10.59,38.71 10.59,38.7 10.6,38.71 L10.6,38.7 C10.5311857,38.4731269 10.4974628,38.2370662 10.5,38 C10.4996083,36.6932045 11.5059272,35.6066801 12.8089197,35.5070549 C14.1119122,35.4074297 15.2717166,36.328335 15.47,37.62 C16.32,37.85 18.74,38.39 20.28006,37.54 C20.3601955,37.4992864 20.437088,37.4524823 20.51006,37.4 C20.52006,37.4 20.53006,37.39 20.54006,37.37 C20.60006,37.33 20.66006,37.29 20.71006,37.25 L20.75006,37.21 C20.799184,37.1658747 20.8459172,37.1191583 20.89006,37.07005 L20.95006,37.01005 C20.97006,36.98005 21.00006,36.95005 21.02006,36.92005 C21.0424669,36.8988924 21.0625783,36.8754291 21.08006,36.85005 C21.13006,36.77005 21.19006,36.68005 21.24006,36.59005 L21.24006,36.58005 C21.2692578,36.5401401 21.2928129,36.4963948 21.31006,36.45005 C21.3127287,36.450105 21.3153043,36.4490692 21.3171917,36.4471817 C21.3190792,36.4452943 21.320115,36.4427187 21.32006,36.44005 C21.3311427,36.4218033 21.3379782,36.401297 21.34006,36.38005 C21.35006,36.37005 21.35006,36.36005 21.36006,36.35005 C21.3640132,36.332422 21.3707654,36.3155414 21.38006,36.30005 C21.39006,36.26005 21.41006,36.23005 21.42006,36.19005 C21.4413319,36.1348407 21.4580543,36.0779846 21.47006,36.02005 C21.48006,36.0101 21.48006,36.0101 21.48006,36.00005 L21.48006,35.99005 C21.4877428,35.9820672 21.4914166,35.9710459 21.49006,35.96005 C21.49006,35.95005 21.49006,35.95005 21.50006,35.94005 L21.50006,35.9 C21.5517645,34.6132805 22.572231,33.5762332 23.85795,33.5037984 C25.1436691,33.4313635 26.2741589,34.3472301 26.47006,35.62 C26.7390975,35.6921618 27.0246499,35.6710113 27.28012,35.56 C27.7028854,35.3370354 28.0377241,34.9775244 28.23012,34.54 L28.89012,35.4 C28.5988937,35.8823559 28.1658364,36.2630273 27.65012,36.49 C27.369778,36.6004422 27.0714262,36.6580784 26.77012,36.66 C26.6527788,36.6607907 26.535615,36.6507481 26.42012,36.63 C26.1702027,37.5810843 25.3873642,38.2982612 24.4180799,38.4641165 C23.4487957,38.6299718 22.4720424,38.2138806 21.92012,37.4 C21.6126681,37.8207116 21.2167027,38.1688881 20.76012,38.42 C19.9423257,38.8306576 19.0347369,39.0300521 18.12012,39 C17.209104,38.9864674 16.3028558,38.8656343 15.42012,38.64 C15.1833494,39.5305426 14.4764551,40.2189946 13.5799659,40.4321459 C12.6834766,40.6452972 11.7423695,40.3486777 11.13012,39.66 C10.2935879,40.651425 9.04629958,41.2012651 7.75012,41.15 C6.84307241,41.1369323 5.94692444,40.9502348 5.11012,40.6 L5.75012,39.77 C6.82,40.17 9.24,40.75 10.58,38.72 Z" id="Shape"/><polygon id="Shape" points="15.88 55 22.12 55 22.87 49 15.13 49"/><path d="M13.52,26.17 L13.52,26.18 C13.509985,26.1951622 13.509985,26.2148378 13.52,26.23 C13.5218004,26.2706604 13.5285159,26.3109535 13.54,26.35 C13.54,26.36 13.55,26.37 13.55,26.38 L13.55,26.39 C13.55,26.39995 13.55,26.39995 13.56,26.41 C13.567205,26.4454694 13.5807557,26.4793463 13.6,26.51 C13.6007436,26.5423305 13.6111966,26.5736895 13.63,26.6 C13.6371772,26.6293245 13.6508467,26.6566635 13.67,26.68 C13.6872669,26.7294612 13.7107912,26.7765098 13.74,26.82 C13.8127768,26.9312406 13.9002327,27.0321512 14,27.12 C14.0522868,27.1687793 14.1092252,27.2123204 14.17,27.25 L14.18,27.26 C14.2412223,27.2971989 14.3046755,27.3305953 14.37,27.36 L14.43,27.39 C14.4560313,27.4016188 14.4827476,27.4116375 14.51,27.42 C14.5541229,27.4394723 14.6017724,27.4496829 14.65,27.45 C14.67,27.45995 14.68,27.47 14.7,27.47 C14.7987633,27.4898869 14.8992544,27.499936 15,27.5 C15.3882821,27.501547 15.761684,27.3507501 16.04,27.08 C16.1004229,27.0295138 16.1512374,26.9685364 16.19,26.9 C16.1926695,26.9000579 16.1952468,26.8990229 16.1971349,26.8971349 C16.1990229,26.8952468 16.2000579,26.8926695 16.2,26.89 L16.23,26.86 C16.3563122,26.6817878 16.4385625,26.4761621 16.47,26.26 C16.48,26.25 16.48,26.25 16.47,26.24 L16.48,26.23 C16.48,26.21 16.49,26.2 16.48,26.18 C16.4847139,26.1764541 16.4874867,26.1708986 16.4874867,26.165 C16.4874867,26.1591014 16.4847139,26.1535459 16.48,26.15 C16.4881615,26.1311103 16.4915939,26.1105156 16.49,26.09 C16.4979537,26.0782665 16.5014964,26.064096 16.5,26.05 L16.5,26 C16.5,25.1715729 15.8284271,24.5 15,24.5 C14.1715729,24.5 13.5,25.1715729 13.5,26 L13.5,26.06 C13.4978317,26.0936561 13.5012101,26.1274397 13.51,26.16 C13.509945,26.1626687 13.5109808,26.1652443 13.5128683,26.1671317 C13.5147557,26.1690192 13.5173313,26.170055 13.52,26.17 L13.52,26.17 Z" id="Shape"/><path d="M22,25.5 C22.8254726,25.5022909 23.4967694,24.8354694 23.5,24.01 L23.5,23.94 C23.4670683,23.1237877 22.7873167,22.4838517 21.9706037,22.5001859 C21.1538907,22.5165202 20.50027,23.1831237 20.5,24 C20.5000383,24.2144997 20.5478635,24.4262967 20.64,24.62 C20.8784203,25.1573243 21.4121612,25.502686 22,25.5 Z" id="Shape"/><path d="M13,39.5 C13.3979875,39.5005317 13.7798274,39.3426672 14.0612473,39.0612473 C14.3426672,38.7798274 14.5005317,38.3979875 14.5,38 L14.5,37.99 C14.4944859,37.1628971 13.8204909,36.4963448 12.9933778,36.5000148 C12.1662646,36.5036847 11.4982112,37.1761918 11.500037,38.0033111 C11.5018628,38.8304304 12.1728787,39.4999816 13,39.5 L13,39.5 Z" id="Shape"/><path d="M22.5,36.01 L22.5,36.03 C22.5164515,36.8524932 23.1922341,37.5083012 24.0148507,37.500075 C24.8374674,37.4918488 25.5,36.8226578 25.5,36 L25.5,35.95 C25.4726756,35.1393853 24.8062201,34.4971621 23.9951496,34.4998656 C23.184079,34.5025692 22.5219198,35.1492212 22.5,35.96 L22.49,35.96 C22.4976828,35.9679828 22.5013566,35.9790041 22.5,35.99 L22.5,36.01 Z" id="Shape"/><path d="M19,16.5 C19.8254726,16.5022909 20.4967694,15.8354694 20.5,15.01 L20.5,14.96 C20.4780427,14.1435024 19.8069748,13.4945809 18.9902002,13.5000261 C18.1734255,13.5054712 17.5110692,14.1632822 17.5,14.98 L17.5,15.04 C17.5197935,15.8535907 18.1861716,16.5021986 19,16.5 L19,16.5 Z" id="Shape"/></g></g></svg>